# xmcd
#
# Track frame offsets: 
#        150
#        11949
#        25178
#        39476
#        50057
#        63664
#        119979
#        129308
#        143770
#        153996
#        168065
#        182028
#        196060
#        207373
#        227281
#        241319
#        256769
#        274296
#        289713
#
# Disc length: 4038 seconds
#
# Revision: 2
# Processed by: cddbd v1.5.2PL0 Copyright (c) Steve Scherf et al.
# Submitted via: ExactAudioCopyFreeDBPlugin 1.0
#
DISCID=100fc413
DTITLE=Irma Thomas - A Woman's Viewpoint:  The Essential 1970s Recordi
DTITLE=ngs
DYEAR=2006
DGENRE=Soul
TTITLE0=In Between Tears
TTITLE1=She'll Never Be Your Wife
TTITLE2=These Four Walls
TTITLE3=What's So Wrong with Loving You
TTITLE4=You're the Dog (I Do the Barking Myself)
TTITLE5=Medley:  Coming from Behind (monologue) - Wish Someone Would C
TTITLE5=are
TTITLE6=Turn My World Around
TTITLE7=We Won't Be in Your Way Anymore
TTITLE8=I'd Do it All Over You
TTITLE9=I'm So in Love
TTITLE10=Can't Get Enough
TTITLE11=Save a Little Bit for Me
TTITLE12=That's How I Feel About You
TTITLE13=A Woman Left Lonely
TTITLE14=Dance Me Down Easy
TTITLE15=Zero Willpower
TTITLE16=Don't Blame Him for What You Didn't Do
TTITLE17=Safe with Me
TTITLE18=Looking Back
EXTD=
EXTT0=
EXTT1=
EXTT2=
EXTT3=
EXTT4=
EXTT5=
EXTT6=
EXTT7=
EXTT8=
EXTT9=
EXTT10=
EXTT11=
EXTT12=
EXTT13=
EXTT14=
EXTT15=
EXTT16=
EXTT17=
EXTT18=
PLAYORDER=
